<svg xmlns="http://www.w3.org/2000/svg" viewBox="0 0 512 512" role="img" aria-labelledby="title desc">
  <title id="title">py-funkyheatmap sticker</title>
  <desc id="desc">OmicVerse repository hex sticker for py-funkyheatmap.</desc>
  <defs>
    <linearGradient id="bg" x1="112" y1="90" x2="398" y2="430" gradientUnits="userSpaceOnUse">
      <stop offset="0" stop-color="#050706"/>
      <stop offset=".58" stop-color="#020403"/>
      <stop offset="1" stop-color="#000000"/>
    </linearGradient>
  </defs>
  <polygon points="256,34 450,146 450,368 256,480 62,368 62,146" fill="#000000" opacity=".34"/>
  <polygon points="256,22 458,139 458,373 256,490 54,373 54,139" fill="url(#bg)" stroke="#0B0F0A" stroke-width="19" stroke-linejoin="round"/>
  <polygon points="256,22 458,139 458,373 256,490 54,373 54,139" fill="none" stroke="#E8FFE0" stroke-width="12" stroke-linejoin="round"/>
  <g opacity=".22" stroke="#3FD36B" stroke-width="2.2">
    <path d="M112 166h288M100 222h312M100 278h312M112 334h288"/>
    <path d="M152 126v236M204 104v274M256 96v286M308 104v274M360 126v236"/>
  </g>
  <g id="motif">
    <rect x="132" y="132" width="248" height="220" rx="10" fill="#FFFFFF" opacity=".10" stroke="#FFFFFF" stroke-width="5"/>
    <rect x="150" y="150" width="24" height="20" fill="#32D74B" opacity=".86"/><rect x="150" y="180" width="24" height="20" fill="#00C7BE" opacity=".86"/><rect x="150" y="210" width="24" height="20" fill="#FFD60A" opacity=".86"/><rect x="150" y="240" width="24" height="20" fill="#FF6961" opacity=".86"/><rect x="150" y="270" width="24" height="20" fill="#FFFFFF" opacity=".86"/><rect x="150" y="300" width="24" height="20" fill="#32D74B" opacity=".86"/><rect x="185" y="150" width="24" height="20" fill="#FFD60A" opacity=".86"/><rect x="185" y="180" width="24" height="20" fill="#FF6961" opacity=".86"/><rect x="185" y="210" width="24" height="20" fill="#FFFFFF" opacity=".86"/><rect x="185" y="240" width="24" height="20" fill="#32D74B" opacity=".86"/><rect x="185" y="270" width="24" height="20" fill="#00C7BE" opacity=".86"/><rect x="185" y="300" width="24" height="20" fill="#FFD60A" opacity=".86"/><rect x="220" y="150" width="24" height="20" fill="#FFFFFF" opacity=".86"/><rect x="220" y="180" width="24" height="20" fill="#32D74B" opacity=".86"/><rect x="220" y="210" width="24" height="20" fill="#00C7BE" opacity=".86"/><rect x="220" y="240" width="24" height="20" fill="#FFD60A" opacity=".86"/><rect x="220" y="270" width="24" height="20" fill="#FF6961" opacity=".86"/><rect x="220" y="300" width="24" height="20" fill="#FFFFFF" opacity=".86"/><rect x="255" y="150" width="24" height="20" fill="#00C7BE" opacity=".86"/><rect x="255" y="180" width="24" height="20" fill="#FFD60A" opacity=".86"/><rect x="255" y="210" width="24" height="20" fill="#FF6961" opacity=".86"/><rect x="255" y="240" width="24" height="20" fill="#FFFFFF" opacity=".86"/><rect x="255" y="270" width="24" height="20" fill="#32D74B" opacity=".86"/><rect x="255" y="300" width="24" height="20" fill="#00C7BE" opacity=".86"/><rect x="290" y="150" width="24" height="20" fill="#FF6961" opacity=".86"/><rect x="290" y="180" width="24" height="20" fill="#FFFFFF" opacity=".86"/><rect x="290" y="210" width="24" height="20" fill="#32D74B" opacity=".86"/><rect x="290" y="240" width="24" height="20" fill="#00C7BE" opacity=".86"/><rect x="290" y="270" width="24" height="20" fill="#FFD60A" opacity=".86"/><rect x="290" y="300" width="24" height="20" fill="#FF6961" opacity=".86"/><rect x="325" y="150" width="24" height="20" fill="#32D74B" opacity=".86"/><rect x="325" y="180" width="24" height="20" fill="#00C7BE" opacity=".86"/><rect x="325" y="210" width="24" height="20" fill="#FFD60A" opacity=".86"/><rect x="325" y="240" width="24" height="20" fill="#FF6961" opacity=".86"/><rect x="325" y="270" width="24" height="20" fill="#FFFFFF" opacity=".86"/><rect x="325" y="300" width="24" height="20" fill="#32D74B" opacity=".86"/>
    <path d="M150 374c48-44 92 34 138-10 28-28 46-50 82-28" fill="none" stroke="#32D74B" stroke-width="7" stroke-linecap="round"/>
  </g>
  <path id="label" d="M306.14,381.66 L311.31,390.61 L305.86,393.76 L292.27,370.22 L297.72,367.08 L299.16,369.57 Q299.43,367.43 300.39,365.93 Q301.35,364.44 303.13,363.41 Q306.28,361.59 309.75,362.92 Q313.22,364.26 315.50,368.20 Q317.77,372.14 317.20,375.82 Q316.62,379.49 313.47,381.31 Q311.69,382.34 309.91,382.42 Q308.13,382.50 306.14,381.66 Z M303.39,368.53 Q301.64,369.54 301.44,371.37 Q301.25,373.20 302.65,375.62 Q304.05,378.04 305.72,378.79 Q307.41,379.53 309.16,378.52 Q310.90,377.51 311.09,375.70 Q311.27,373.89 309.87,371.45 Q308.46,369.01 306.80,368.27 Q305.14,367.52 303.39,368.53 Z M312.35,358.63 L317.80,355.48 L329.06,364.41 L326.28,350.59 L331.73,347.44 L335.33,370.25 Q335.90,373.72 335.11,375.68 Q334.33,377.64 331.97,379.01 L328.82,380.83 L326.75,377.25 L328.46,376.27 Q329.84,375.47 330.22,374.66 Q330.60,373.86 330.29,372.51 L330.17,371.95 L312.35,358.63 Z M337.37,352.00 L346.92,346.48 L349.48,350.91 L339.92,356.43 L337.37,352.00 Z M355.24,325.02 L357.30,328.60 L354.29,330.34 Q353.13,331.01 352.91,331.69 Q352.70,332.37 353.30,333.40 L353.98,334.59 L358.64,331.90 L360.89,335.80 L356.23,338.49 L363.83,351.64 L358.38,354.79 L350.78,341.64 L348.08,343.20 L345.83,339.30 L348.53,337.74 L347.85,336.55 Q346.24,333.77 347.02,331.54 Q347.81,329.31 351.06,327.43 L355.24,325.02 Z M367.24,340.82 L361.23,330.41 L366.71,327.25 L367.70,328.95 Q368.49,330.33 369.69,332.44 Q370.88,334.54 371.29,335.24 Q372.47,337.29 373.10,338.14 Q373.73,338.98 374.23,339.25 Q374.87,339.59 375.58,339.57 Q376.28,339.54 376.99,339.14 Q378.69,338.15 378.91,336.28 Q379.13,334.41 377.78,332.08 L372.92,323.66 L378.37,320.51 L388.22,337.56 L382.77,340.71 L381.34,338.24 Q380.97,340.45 380.00,341.95 Q379.03,343.46 377.38,344.41 Q374.42,346.12 371.83,345.20 Q369.24,344.28 367.24,340.82 Z M404.60,314.26 L410.59,324.64 L405.11,327.81 L404.14,326.12 L400.52,319.86 Q399.25,317.66 398.67,316.87 Q398.09,316.09 397.62,315.84 Q396.99,315.49 396.26,315.51 Q395.55,315.53 394.85,315.93 Q393.14,316.92 392.93,318.80 Q392.71,320.68 394.06,323.01 L398.90,331.39 L393.45,334.54 L383.61,317.49 L389.06,314.34 L390.50,316.84 Q390.87,314.64 391.84,313.13 Q392.83,311.62 394.50,310.66 Q397.45,308.95 400.03,309.88 Q402.60,310.80 404.60,314.26 Z M401.97,298.03 L407.42,294.89 L414.86,307.78 L417.53,297.91 L423.86,294.25 L420.05,306.88 L434.36,310.92 L427.75,314.74 L416.99,311.47 L421.10,318.58 L415.65,321.72 L401.97,298.03 Z M424.30,294.00 L429.75,290.85 L441.01,299.77 L438.23,285.95 L443.68,282.81 L447.28,305.61 Q447.85,309.08 447.06,311.05 Q446.28,313.01 443.92,314.37 L440.77,316.19 L438.71,312.62 L440.41,311.63 Q441.79,310.83 442.17,310.03 Q442.55,309.22 442.24,307.87 L442.12,307.31 L424.30,294.00 Z" fill="#FFFFFF"/>
</svg>
